<svg xmlns="http://www.w3.org/2000/svg" version="1.1" xmlns:xlink="http://www.w3.org/1999/xlink" xmlns:svgjs="http://svgjs.dev/svgjs" width="1440" height="900" preserveAspectRatio="none" viewBox="0 0 1440 900"><g mask="url(&quot;#SvgjsMask1988&quot;)" fill="none"><rect width="1440" height="900" x="0" y="0" fill="url(&quot;#SvgjsLinearGradient1989&quot;)"></rect><path d="M52.36 158.95L112.12 193.45L112.12 262.45L52.36 296.95L-7.4 262.45L-7.4 193.45zM112.12 676.45L171.87 710.95L171.87 779.95L112.12 814.45L52.36 779.95L52.36 710.95zM52.36 779.95L112.12 814.45L112.12 883.45L52.36 917.95L-7.4 883.45L-7.4 814.45zM171.87 365.95L231.63 400.45L231.63 469.45L171.87 503.95L112.12 469.45L112.12 400.45zM231.63 469.45L291.39 503.95L291.39 572.95L231.63 607.45L171.87 572.95L171.87 503.95zM171.87 779.95L231.63 814.45L231.63 883.45L171.87 917.95L112.12 883.45L112.12 814.45zM231.63 883.45L291.39 917.95L291.39 986.95L231.63 1021.45L171.87 986.95L171.87 917.95zM291.39 -48.05L351.15 -13.55L351.15 55.45L291.39 89.95L231.63 55.45L231.63 -13.55zM351.15 262.45L410.9 296.95L410.9 365.95L351.15 400.45L291.39 365.95L291.39 296.95zM291.39 572.95L351.15 607.45L351.15 676.45L291.39 710.95L231.63 676.45L231.63 607.45zM590.18 262.45L649.93 296.95L649.93 365.95L590.18 400.45L530.42 365.95L530.42 296.95zM530.42 365.95L590.18 400.45L590.18 469.45L530.42 503.95L470.66 469.45L470.66 400.45zM530.42 779.95L590.18 814.45L590.18 883.45L530.42 917.95L470.66 883.45L470.66 814.45zM709.69 55.45L769.45 89.95L769.45 158.95L709.69 193.45L649.93 158.95L649.93 89.95zM709.69 262.45L769.45 296.95L769.45 365.95L709.69 400.45L649.93 365.95L649.93 296.95zM649.93 572.95L709.69 607.45L709.69 676.45L649.93 710.95L590.18 676.45L590.18 607.45zM829.21 55.45L888.96 89.95L888.96 158.95L829.21 193.45L769.45 158.95L769.45 89.95zM769.45 572.95L829.21 607.45L829.21 676.45L769.45 710.95L709.69 676.45L709.69 607.45zM769.45 779.95L829.21 814.45L829.21 883.45L769.45 917.95L709.69 883.45L709.69 814.45zM829.21 883.45L888.96 917.95L888.96 986.95L829.21 1021.45L769.45 986.95L769.45 917.95zM888.96 -48.05L948.72 -13.55L948.72 55.45L888.96 89.95L829.21 55.45L829.21 -13.55zM948.72 55.45L1008.48 89.95L1008.48 158.95L948.72 193.45L888.96 158.95L888.96 89.95zM888.96 572.95L948.72 607.45L948.72 676.45L888.96 710.95L829.21 676.45L829.21 607.45zM1008.48 158.95L1068.24 193.45L1068.24 262.45L1008.48 296.95L948.72 262.45L948.72 193.45zM1008.48 572.95L1068.24 607.45L1068.24 676.45L1008.48 710.95L948.72 676.45L948.72 607.45zM1068.24 883.45L1127.99 917.95L1127.99 986.95L1068.24 1021.45L1008.48 986.95L1008.48 917.95zM1127.99 -48.05L1187.75 -13.55L1187.75 55.45L1127.99 89.95L1068.24 55.45L1068.24 -13.55zM1187.75 469.45L1247.51 503.95L1247.51 572.95L1187.75 607.45L1127.99 572.95L1127.99 503.95zM1127.99 572.95L1187.75 607.45L1187.75 676.45L1127.99 710.95L1068.24 676.45L1068.24 607.45zM1127.99 779.95L1187.75 814.45L1187.75 883.45L1127.99 917.95L1068.24 883.45L1068.24 814.45zM1187.75 883.45L1247.51 917.95L1247.51 986.95L1187.75 1021.45L1127.99 986.95L1127.99 917.95zM1307.27 55.45L1367.02 89.95L1367.02 158.95L1307.27 193.45L1247.51 158.95L1247.51 89.95zM1307.27 883.45L1367.02 917.95L1367.02 986.95L1307.27 1021.45L1247.51 986.95L1247.51 917.95zM1426.78 55.45L1486.54 89.95L1486.54 158.95L1426.78 193.45L1367.02 158.95L1367.02 89.95zM1426.78 469.45L1486.54 503.95L1486.54 572.95L1426.78 607.45L1367.02 572.95L1367.02 503.95zM1426.78 676.45L1486.54 710.95L1486.54 779.95L1426.78 814.45L1367.02 779.95L1367.02 710.95zM1367.02 779.95L1426.78 814.45L1426.78 883.45L1367.02 917.95L1307.27 883.45L1307.27 814.45zM1486.54 -48.05L1546.3 -13.55L1546.3 55.45L1486.54 89.95L1426.78 55.45L1426.78 -13.55zM1486.54 158.95L1546.3 193.45L1546.3 262.45L1486.54 296.95L1426.78 262.45L1426.78 193.45zM1486.54 365.95L1546.3 400.45L1546.3 469.45L1486.54 503.95L1426.78 469.45L1426.78 400.45zM1546.3 469.45L1606.05 503.95L1606.05 572.95L1546.3 607.45L1486.54 572.95L1486.54 503.95zM1486.54 779.95L1546.3 814.45L1546.3 883.45L1486.54 917.95L1426.78 883.45L1426.78 814.45z" stroke="rgba(50, 57, 118, 1)" stroke-width="2"></path><path d="M45.46 158.95 a6.9 6.9 0 1 0 13.8 0 a6.9 6.9 0 1 0 -13.8 0zM105.22 193.45 a6.9 6.9 0 1 0 13.8 0 a6.9 6.9 0 1 0 -13.8 0zM105.22 262.45 a6.9 6.9 0 1 0 13.8 0 a6.9 6.9 0 1 0 -13.8 0zM45.46 296.95 a6.9 6.9 0 1 0 13.8 0 a6.9 6.9 0 1 0 -13.8 0zM-14.3 262.45 a6.9 6.9 0 1 0 13.8 0 a6.9 6.9 0 1 0 -13.8 0zM-14.3 193.45 a6.9 6.9 0 1 0 13.8 0 a6.9 6.9 0 1 0 -13.8 0zM105.22 676.45 a6.9 6.9 0 1 0 13.8 0 a6.9 6.9 0 1 0 -13.8 0zM164.97 710.95 a6.9 6.9 0 1 0 13.8 0 a6.9 6.9 0 1 0 -13.8 0zM164.97 779.95 a6.9 6.9 0 1 0 13.8 0 a6.9 6.9 0 1 0 -13.8 0zM105.22 814.45 a6.9 6.9 0 1 0 13.8 0 a6.9 6.9 0 1 0 -13.8 0zM45.46 779.95 a6.9 6.9 0 1 0 13.8 0 a6.9 6.9 0 1 0 -13.8 0zM45.46 710.95 a6.9 6.9 0 1 0 13.8 0 a6.9 6.9 0 1 0 -13.8 0zM105.22 883.45 a6.9 6.9 0 1 0 13.8 0 a6.9 6.9 0 1 0 -13.8 0zM45.46 917.95 a6.9 6.9 0 1 0 13.8 0 a6.9 6.9 0 1 0 -13.8 0zM-14.3 883.45 a6.9 6.9 0 1 0 13.8 0 a6.9 6.9 0 1 0 -13.8 0zM-14.3 814.45 a6.9 6.9 0 1 0 13.8 0 a6.9 6.9 0 1 0 -13.8 0zM164.97 365.95 a6.9 6.9 0 1 0 13.8 0 a6.9 6.9 0 1 0 -13.8 0zM224.73 400.45 a6.9 6.9 0 1 0 13.8 0 a6.9 6.9 0 1 0 -13.8 0zM224.73 469.45 a6.9 6.9 0 1 0 13.8 0 a6.9 6.9 0 1 0 -13.8 0zM164.97 503.95 a6.9 6.9 0 1 0 13.8 0 a6.9 6.9 0 1 0 -13.8 0zM105.22 469.45 a6.9 6.9 0 1 0 13.8 0 a6.9 6.9 0 1 0 -13.8 0zM105.22 400.45 a6.9 6.9 0 1 0 13.8 0 a6.9 6.9 0 1 0 -13.8 0zM284.49 503.95 a6.9 6.9 0 1 0 13.8 0 a6.9 6.9 0 1 0 -13.8 0zM284.49 572.95 a6.9 6.9 0 1 0 13.8 0 a6.9 6.9 0 1 0 -13.8 0zM224.73 607.45 a6.9 6.9 0 1 0 13.8 0 a6.9 6.9 0 1 0 -13.8 0zM164.97 572.95 a6.9 6.9 0 1 0 13.8 0 a6.9 6.9 0 1 0 -13.8 0zM224.73 814.45 a6.9 6.9 0 1 0 13.8 0 a6.9 6.9 0 1 0 -13.8 0zM224.73 883.45 a6.9 6.9 0 1 0 13.8 0 a6.9 6.9 0 1 0 -13.8 0zM164.97 917.95 a6.9 6.9 0 1 0 13.8 0 a6.9 6.9 0 1 0 -13.8 0zM284.49 917.95 a6.9 6.9 0 1 0 13.8 0 a6.9 6.9 0 1 0 -13.8 0zM284.49 986.95 a6.9 6.9 0 1 0 13.8 0 a6.9 6.9 0 1 0 -13.8 0zM224.73 1021.45 a6.9 6.9 0 1 0 13.8 0 a6.9 6.9 0 1 0 -13.8 0zM164.97 986.95 a6.9 6.9 0 1 0 13.8 0 a6.9 6.9 0 1 0 -13.8 0zM284.49 -48.05 a6.9 6.9 0 1 0 13.8 0 a6.9 6.9 0 1 0 -13.8 0zM344.25 -13.55 a6.9 6.9 0 1 0 13.8 0 a6.9 6.9 0 1 0 -13.8 0zM344.25 55.45 a6.9 6.9 0 1 0 13.8 0 a6.9 6.9 0 1 0 -13.8 0zM284.49 89.95 a6.9 6.9 0 1 0 13.8 0 a6.9 6.9 0 1 0 -13.8 0zM224.73 55.45 a6.9 6.9 0 1 0 13.8 0 a6.9 6.9 0 1 0 -13.8 0zM224.73 -13.55 a6.9 6.9 0 1 0 13.8 0 a6.9 6.9 0 1 0 -13.8 0zM344.25 262.45 a6.9 6.9 0 1 0 13.8 0 a6.9 6.9 0 1 0 -13.8 0zM404 296.95 a6.9 6.9 0 1 0 13.8 0 a6.9 6.9 0 1 0 -13.8 0zM404 365.95 a6.9 6.9 0 1 0 13.8 0 a6.9 6.9 0 1 0 -13.8 0zM344.25 400.45 a6.9 6.9 0 1 0 13.8 0 a6.9 6.9 0 1 0 -13.8 0zM284.49 365.95 a6.9 6.9 0 1 0 13.8 0 a6.9 6.9 0 1 0 -13.8 0zM284.49 296.95 a6.9 6.9 0 1 0 13.8 0 a6.9 6.9 0 1 0 -13.8 0zM344.25 607.45 a6.9 6.9 0 1 0 13.8 0 a6.9 6.9 0 1 0 -13.8 0zM344.25 676.45 a6.9 6.9 0 1 0 13.8 0 a6.9 6.9 0 1 0 -13.8 0zM284.49 710.95 a6.9 6.9 0 1 0 13.8 0 a6.9 6.9 0 1 0 -13.8 0zM224.73 676.45 a6.9 6.9 0 1 0 13.8 0 a6.9 6.9 0 1 0 -13.8 0zM583.28 262.45 a6.9 6.9 0 1 0 13.8 0 a6.9 6.9 0 1 0 -13.8 0zM643.03 296.95 a6.9 6.9 0 1 0 13.8 0 a6.9 6.9 0 1 0 -13.8 0zM643.03 365.95 a6.9 6.9 0 1 0 13.8 0 a6.9 6.9 0 1 0 -13.8 0zM583.28 400.45 a6.9 6.9 0 1 0 13.8 0 a6.9 6.9 0 1 0 -13.8 0zM523.52 365.95 a6.9 6.9 0 1 0 13.8 0 a6.9 6.9 0 1 0 -13.8 0zM523.52 296.95 a6.9 6.9 0 1 0 13.8 0 a6.9 6.9 0 1 0 -13.8 0zM583.28 469.45 a6.9 6.9 0 1 0 13.8 0 a6.9 6.9 0 1 0 -13.8 0zM523.52 503.95 a6.9 6.9 0 1 0 13.8 0 a6.9 6.9 0 1 0 -13.8 0zM463.76 469.45 a6.9 6.9 0 1 0 13.8 0 a6.9 6.9 0 1 0 -13.8 0zM463.76 400.45 a6.9 6.9 0 1 0 13.8 0 a6.9 6.9 0 1 0 -13.8 0zM523.52 779.95 a6.9 6.9 0 1 0 13.8 0 a6.9 6.9 0 1 0 -13.8 0zM583.28 814.45 a6.9 6.9 0 1 0 13.8 0 a6.9 6.9 0 1 0 -13.8 0zM583.28 883.45 a6.9 6.9 0 1 0 13.8 0 a6.9 6.9 0 1 0 -13.8 0zM523.52 917.95 a6.9 6.9 0 1 0 13.8 0 a6.9 6.9 0 1 0 -13.8 0zM463.76 883.45 a6.9 6.9 0 1 0 13.8 0 a6.9 6.9 0 1 0 -13.8 0zM463.76 814.45 a6.9 6.9 0 1 0 13.8 0 a6.9 6.9 0 1 0 -13.8 0zM702.79 55.45 a6.9 6.9 0 1 0 13.8 0 a6.9 6.9 0 1 0 -13.8 0zM762.55 89.95 a6.9 6.9 0 1 0 13.8 0 a6.9 6.9 0 1 0 -13.8 0zM762.55 158.95 a6.9 6.9 0 1 0 13.8 0 a6.9 6.9 0 1 0 -13.8 0zM702.79 193.45 a6.9 6.9 0 1 0 13.8 0 a6.9 6.9 0 1 0 -13.8 0zM643.03 158.95 a6.9 6.9 0 1 0 13.8 0 a6.9 6.9 0 1 0 -13.8 0zM643.03 89.95 a6.9 6.9 0 1 0 13.8 0 a6.9 6.9 0 1 0 -13.8 0zM702.79 262.45 a6.9 6.9 0 1 0 13.8 0 a6.9 6.9 0 1 0 -13.8 0zM762.55 296.95 a6.9 6.9 0 1 0 13.8 0 a6.9 6.9 0 1 0 -13.8 0zM762.55 365.95 a6.9 6.9 0 1 0 13.8 0 a6.9 6.9 0 1 0 -13.8 0zM702.79 400.45 a6.9 6.9 0 1 0 13.8 0 a6.9 6.9 0 1 0 -13.8 0zM643.03 572.95 a6.9 6.9 0 1 0 13.8 0 a6.9 6.9 0 1 0 -13.8 0zM702.79 607.45 a6.9 6.9 0 1 0 13.8 0 a6.9 6.9 0 1 0 -13.8 0zM702.79 676.45 a6.9 6.9 0 1 0 13.8 0 a6.9 6.9 0 1 0 -13.8 0zM643.03 710.95 a6.9 6.9 0 1 0 13.8 0 a6.9 6.9 0 1 0 -13.8 0zM583.28 676.45 a6.9 6.9 0 1 0 13.8 0 a6.9 6.9 0 1 0 -13.8 0zM583.28 607.45 a6.9 6.9 0 1 0 13.8 0 a6.9 6.9 0 1 0 -13.8 0zM822.31 55.45 a6.9 6.9 0 1 0 13.8 0 a6.9 6.9 0 1 0 -13.8 0zM882.06 89.95 a6.9 6.9 0 1 0 13.8 0 a6.9 6.9 0 1 0 -13.8 0zM882.06 158.95 a6.9 6.9 0 1 0 13.8 0 a6.9 6.9 0 1 0 -13.8 0zM822.31 193.45 a6.9 6.9 0 1 0 13.8 0 a6.9 6.9 0 1 0 -13.8 0zM762.55 572.95 a6.9 6.9 0 1 0 13.8 0 a6.9 6.9 0 1 0 -13.8 0zM822.31 607.45 a6.9 6.9 0 1 0 13.8 0 a6.9 6.9 0 1 0 -13.8 0zM822.31 676.45 a6.9 6.9 0 1 0 13.8 0 a6.9 6.9 0 1 0 -13.8 0zM762.55 710.95 a6.9 6.9 0 1 0 13.8 0 a6.9 6.9 0 1 0 -13.8 0zM762.55 779.95 a6.9 6.9 0 1 0 13.8 0 a6.9 6.9 0 1 0 -13.8 0zM822.31 814.45 a6.9 6.9 0 1 0 13.8 0 a6.9 6.9 0 1 0 -13.8 0zM822.31 883.45 a6.9 6.9 0 1 0 13.8 0 a6.9 6.9 0 1 0 -13.8 0zM762.55 917.95 a6.9 6.9 0 1 0 13.8 0 a6.9 6.9 0 1 0 -13.8 0zM702.79 883.45 a6.9 6.9 0 1 0 13.8 0 a6.9 6.9 0 1 0 -13.8 0zM702.79 814.45 a6.9 6.9 0 1 0 13.8 0 a6.9 6.9 0 1 0 -13.8 0zM882.06 917.95 a6.9 6.9 0 1 0 13.8 0 a6.9 6.9 0 1 0 -13.8 0zM882.06 986.95 a6.9 6.9 0 1 0 13.8 0 a6.9 6.9 0 1 0 -13.8 0zM822.31 1021.45 a6.9 6.9 0 1 0 13.8 0 a6.9 6.9 0 1 0 -13.8 0zM762.55 986.95 a6.9 6.9 0 1 0 13.8 0 a6.9 6.9 0 1 0 -13.8 0zM882.06 -48.05 a6.9 6.9 0 1 0 13.8 0 a6.9 6.9 0 1 0 -13.8 0zM941.82 -13.55 a6.9 6.9 0 1 0 13.8 0 a6.9 6.9 0 1 0 -13.8 0zM941.82 55.45 a6.9 6.9 0 1 0 13.8 0 a6.9 6.9 0 1 0 -13.8 0zM822.31 -13.55 a6.9 6.9 0 1 0 13.8 0 a6.9 6.9 0 1 0 -13.8 0zM1001.58 89.95 a6.9 6.9 0 1 0 13.8 0 a6.9 6.9 0 1 0 -13.8 0zM1001.58 158.95 a6.9 6.9 0 1 0 13.8 0 a6.9 6.9 0 1 0 -13.8 0zM941.82 193.45 a6.9 6.9 0 1 0 13.8 0 a6.9 6.9 0 1 0 -13.8 0zM882.06 572.95 a6.9 6.9 0 1 0 13.8 0 a6.9 6.9 0 1 0 -13.8 0zM941.82 607.45 a6.9 6.9 0 1 0 13.8 0 a6.9 6.9 0 1 0 -13.8 0zM941.82 676.45 a6.9 6.9 0 1 0 13.8 0 a6.9 6.9 0 1 0 -13.8 0zM882.06 710.95 a6.9 6.9 0 1 0 13.8 0 a6.9 6.9 0 1 0 -13.8 0zM1061.34 193.45 a6.9 6.9 0 1 0 13.8 0 a6.9 6.9 0 1 0 -13.8 0zM1061.34 262.45 a6.9 6.9 0 1 0 13.8 0 a6.9 6.9 0 1 0 -13.8 0zM1001.58 296.95 a6.9 6.9 0 1 0 13.8 0 a6.9 6.9 0 1 0 -13.8 0zM941.82 262.45 a6.9 6.9 0 1 0 13.8 0 a6.9 6.9 0 1 0 -13.8 0zM1001.58 572.95 a6.9 6.9 0 1 0 13.8 0 a6.9 6.9 0 1 0 -13.8 0zM1061.34 607.45 a6.9 6.9 0 1 0 13.8 0 a6.9 6.9 0 1 0 -13.8 0zM1061.34 676.45 a6.9 6.9 0 1 0 13.8 0 a6.9 6.9 0 1 0 -13.8 0zM1001.58 710.95 a6.9 6.9 0 1 0 13.8 0 a6.9 6.9 0 1 0 -13.8 0zM1061.34 883.45 a6.9 6.9 0 1 0 13.8 0 a6.9 6.9 0 1 0 -13.8 0zM1121.09 917.95 a6.9 6.9 0 1 0 13.8 0 a6.9 6.9 0 1 0 -13.8 0zM1121.09 986.95 a6.9 6.9 0 1 0 13.8 0 a6.9 6.9 0 1 0 -13.8 0zM1061.34 1021.45 a6.9 6.9 0 1 0 13.8 0 a6.9 6.9 0 1 0 -13.8 0zM1001.58 986.95 a6.9 6.9 0 1 0 13.8 0 a6.9 6.9 0 1 0 -13.8 0zM1001.58 917.95 a6.9 6.9 0 1 0 13.8 0 a6.9 6.9 0 1 0 -13.8 0zM1121.09 -48.05 a6.9 6.9 0 1 0 13.8 0 a6.9 6.9 0 1 0 -13.8 0zM1180.85 -13.55 a6.9 6.9 0 1 0 13.8 0 a6.9 6.9 0 1 0 -13.8 0zM1180.85 55.45 a6.9 6.9 0 1 0 13.8 0 a6.9 6.9 0 1 0 -13.8 0zM1121.09 89.95 a6.9 6.9 0 1 0 13.8 0 a6.9 6.9 0 1 0 -13.8 0zM1061.34 55.45 a6.9 6.9 0 1 0 13.8 0 a6.9 6.9 0 1 0 -13.8 0zM1061.34 -13.55 a6.9 6.9 0 1 0 13.8 0 a6.9 6.9 0 1 0 -13.8 0zM1180.85 469.45 a6.9 6.9 0 1 0 13.8 0 a6.9 6.9 0 1 0 -13.8 0zM1240.61 503.95 a6.9 6.9 0 1 0 13.8 0 a6.9 6.9 0 1 0 -13.8 0zM1240.61 572.95 a6.9 6.9 0 1 0 13.8 0 a6.9 6.9 0 1 0 -13.8 0zM1180.85 607.45 a6.9 6.9 0 1 0 13.8 0 a6.9 6.9 0 1 0 -13.8 0zM1121.09 572.95 a6.9 6.9 0 1 0 13.8 0 a6.9 6.9 0 1 0 -13.8 0zM1121.09 503.95 a6.9 6.9 0 1 0 13.8 0 a6.9 6.9 0 1 0 -13.8 0zM1180.85 676.45 a6.9 6.9 0 1 0 13.8 0 a6.9 6.9 0 1 0 -13.8 0zM1121.09 710.95 a6.9 6.9 0 1 0 13.8 0 a6.9 6.9 0 1 0 -13.8 0zM1121.09 779.95 a6.9 6.9 0 1 0 13.8 0 a6.9 6.9 0 1 0 -13.8 0zM1180.85 814.45 a6.9 6.9 0 1 0 13.8 0 a6.9 6.9 0 1 0 -13.8 0zM1180.85 883.45 a6.9 6.9 0 1 0 13.8 0 a6.9 6.9 0 1 0 -13.8 0zM1061.34 814.45 a6.9 6.9 0 1 0 13.8 0 a6.9 6.9 0 1 0 -13.8 0zM1240.61 917.95 a6.9 6.9 0 1 0 13.8 0 a6.9 6.9 0 1 0 -13.8 0zM1240.61 986.95 a6.9 6.9 0 1 0 13.8 0 a6.9 6.9 0 1 0 -13.8 0zM1180.85 1021.45 a6.9 6.9 0 1 0 13.8 0 a6.9 6.9 0 1 0 -13.8 0zM1300.37 55.45 a6.9 6.9 0 1 0 13.8 0 a6.9 6.9 0 1 0 -13.8 0zM1360.12 89.95 a6.9 6.9 0 1 0 13.8 0 a6.9 6.9 0 1 0 -13.8 0zM1360.12 158.95 a6.9 6.9 0 1 0 13.8 0 a6.9 6.9 0 1 0 -13.8 0zM1300.37 193.45 a6.9 6.9 0 1 0 13.8 0 a6.9 6.9 0 1 0 -13.8 0zM1240.61 158.95 a6.9 6.9 0 1 0 13.8 0 a6.9 6.9 0 1 0 -13.8 0zM1240.61 89.95 a6.9 6.9 0 1 0 13.8 0 a6.9 6.9 0 1 0 -13.8 0zM1300.37 883.45 a6.9 6.9 0 1 0 13.8 0 a6.9 6.9 0 1 0 -13.8 0zM1360.12 917.95 a6.9 6.9 0 1 0 13.8 0 a6.9 6.9 0 1 0 -13.8 0zM1360.12 986.95 a6.9 6.9 0 1 0 13.8 0 a6.9 6.9 0 1 0 -13.8 0zM1300.37 1021.45 a6.9 6.9 0 1 0 13.8 0 a6.9 6.9 0 1 0 -13.8 0zM1419.88 55.45 a6.9 6.9 0 1 0 13.8 0 a6.9 6.9 0 1 0 -13.8 0zM1479.64 89.95 a6.9 6.9 0 1 0 13.8 0 a6.9 6.9 0 1 0 -13.8 0zM1479.64 158.95 a6.9 6.9 0 1 0 13.8 0 a6.9 6.9 0 1 0 -13.8 0zM1419.88 193.45 a6.9 6.9 0 1 0 13.8 0 a6.9 6.9 0 1 0 -13.8 0zM1419.88 469.45 a6.9 6.9 0 1 0 13.8 0 a6.9 6.9 0 1 0 -13.8 0zM1479.64 503.95 a6.9 6.9 0 1 0 13.8 0 a6.9 6.9 0 1 0 -13.8 0zM1479.64 572.95 a6.9 6.9 0 1 0 13.8 0 a6.9 6.9 0 1 0 -13.8 0zM1419.88 607.45 a6.9 6.9 0 1 0 13.8 0 a6.9 6.9 0 1 0 -13.8 0zM1360.12 572.95 a6.9 6.9 0 1 0 13.8 0 a6.9 6.9 0 1 0 -13.8 0zM1360.12 503.95 a6.9 6.9 0 1 0 13.8 0 a6.9 6.9 0 1 0 -13.8 0zM1419.88 676.45 a6.9 6.9 0 1 0 13.8 0 a6.9 6.9 0 1 0 -13.8 0zM1479.64 710.95 a6.9 6.9 0 1 0 13.8 0 a6.9 6.9 0 1 0 -13.8 0zM1479.64 779.95 a6.9 6.9 0 1 0 13.8 0 a6.9 6.9 0 1 0 -13.8 0zM1419.88 814.45 a6.9 6.9 0 1 0 13.8 0 a6.9 6.9 0 1 0 -13.8 0zM1360.12 779.95 a6.9 6.9 0 1 0 13.8 0 a6.9 6.9 0 1 0 -13.8 0zM1360.12 710.95 a6.9 6.9 0 1 0 13.8 0 a6.9 6.9 0 1 0 -13.8 0zM1419.88 883.45 a6.9 6.9 0 1 0 13.8 0 a6.9 6.9 0 1 0 -13.8 0zM1300.37 814.45 a6.9 6.9 0 1 0 13.8 0 a6.9 6.9 0 1 0 -13.8 0zM1479.64 -48.05 a6.9 6.9 0 1 0 13.8 0 a6.9 6.9 0 1 0 -13.8 0zM1539.4 -13.55 a6.9 6.9 0 1 0 13.8 0 a6.9 6.9 0 1 0 -13.8 0zM1539.4 55.45 a6.9 6.9 0 1 0 13.8 0 a6.9 6.9 0 1 0 -13.8 0zM1419.88 -13.55 a6.9 6.9 0 1 0 13.8 0 a6.9 6.9 0 1 0 -13.8 0zM1539.4 193.45 a6.9 6.9 0 1 0 13.8 0 a6.9 6.9 0 1 0 -13.8 0zM1539.4 262.45 a6.9 6.9 0 1 0 13.8 0 a6.9 6.9 0 1 0 -13.8 0zM1479.64 296.95 a6.9 6.9 0 1 0 13.8 0 a6.9 6.9 0 1 0 -13.8 0zM1419.88 262.45 a6.9 6.9 0 1 0 13.8 0 a6.9 6.9 0 1 0 -13.8 0zM1479.64 365.95 a6.9 6.9 0 1 0 13.8 0 a6.9 6.9 0 1 0 -13.8 0zM1539.4 400.45 a6.9 6.9 0 1 0 13.8 0 a6.9 6.9 0 1 0 -13.8 0zM1539.4 469.45 a6.9 6.9 0 1 0 13.8 0 a6.9 6.9 0 1 0 -13.8 0zM1419.88 400.45 a6.9 6.9 0 1 0 13.8 0 a6.9 6.9 0 1 0 -13.8 0zM1599.15 503.95 a6.9 6.9 0 1 0 13.8 0 a6.9 6.9 0 1 0 -13.8 0zM1599.15 572.95 a6.9 6.9 0 1 0 13.8 0 a6.9 6.9 0 1 0 -13.8 0zM1539.4 607.45 a6.9 6.9 0 1 0 13.8 0 a6.9 6.9 0 1 0 -13.8 0zM1539.4 814.45 a6.9 6.9 0 1 0 13.8 0 a6.9 6.9 0 1 0 -13.8 0zM1539.4 883.45 a6.9 6.9 0 1 0 13.8 0 a6.9 6.9 0 1 0 -13.8 0zM1479.64 917.95 a6.9 6.9 0 1 0 13.8 0 a6.9 6.9 0 1 0 -13.8 0z" fill="rgba(50, 57, 118, 1)"></path><path d="M70.2 -37.82L135.15 -0.32L135.15 74.68L70.2 112.18L5.25 74.68L5.25 -0.32zM70.2 187.18L135.15 224.68L135.15 299.68L70.2 337.18L5.25 299.68L5.25 224.68zM70.2 637.18L135.15 674.68L135.15 749.68L70.2 787.18L5.25 749.68L5.25 674.68zM200.11 -37.82L265.06 -0.32L265.06 74.68L200.11 112.18L135.15 74.68L135.15 -0.32zM265.06 74.68L330.01 112.18L330.01 187.18L265.06 224.68L200.11 187.18L200.11 112.18zM200.11 187.18L265.06 224.68L265.06 299.68L200.11 337.18L135.15 299.68L135.15 224.68zM200.11 412.18L265.06 449.68L265.06 524.68L200.11 562.18L135.15 524.68L135.15 449.68zM265.06 524.68L330.01 562.18L330.01 637.18L265.06 674.68L200.11 637.18L200.11 562.18zM200.11 637.18L265.06 674.68L265.06 749.68L200.11 787.18L135.15 749.68L135.15 674.68zM330.01 -37.82L394.97 -0.32L394.97 74.68L330.01 112.18L265.06 74.68L265.06 -0.32zM394.97 299.68L459.92 337.18L459.92 412.18L394.97 449.68L330.01 412.18L330.01 337.18zM330.01 412.18L394.97 449.68L394.97 524.68L330.01 562.18L265.06 524.68L265.06 449.68zM330.01 637.18L394.97 674.68L394.97 749.68L330.01 787.18L265.06 749.68L265.06 674.68zM394.97 749.68L459.92 787.18L459.92 862.18L394.97 899.68L330.01 862.18L330.01 787.18zM330.01 862.18L394.97 899.68L394.97 974.68L330.01 1012.18L265.06 974.68L265.06 899.68zM524.88 74.68L589.83 112.18L589.83 187.18L524.88 224.68L459.92 187.18L459.92 112.18zM459.92 187.18L524.88 224.68L524.88 299.68L459.92 337.18L394.97 299.68L394.97 224.68zM459.92 412.18L524.88 449.68L524.88 524.68L459.92 562.18L394.97 524.68L394.97 449.68zM459.92 862.18L524.88 899.68L524.88 974.68L459.92 1012.18L394.97 974.68L394.97 899.68zM589.83 -37.82L654.78 -0.32L654.78 74.68L589.83 112.18L524.88 74.68L524.88 -0.32zM654.78 74.68L719.74 112.18L719.74 187.18L654.78 224.68L589.83 187.18L589.83 112.18zM589.83 862.18L654.78 899.68L654.78 974.68L589.83 1012.18L524.88 974.68L524.88 899.68zM784.69 74.68L849.65 112.18L849.65 187.18L784.69 224.68L719.74 187.18L719.74 112.18zM784.69 299.68L849.65 337.18L849.65 412.18L784.69 449.68L719.74 412.18L719.74 337.18zM719.74 412.18L784.69 449.68L784.69 524.68L719.74 562.18L654.78 524.68L654.78 449.68zM784.69 749.68L849.65 787.18L849.65 862.18L784.69 899.68L719.74 862.18L719.74 787.18zM719.74 862.18L784.69 899.68L784.69 974.68L719.74 1012.18L654.78 974.68L654.78 899.68zM914.6 74.68L979.55 112.18L979.55 187.18L914.6 224.68L849.64 187.18L849.64 112.18zM914.6 524.68L979.55 562.18L979.55 637.18L914.6 674.68L849.64 637.18L849.64 562.18zM914.6 749.68L979.55 787.18L979.55 862.18L914.6 899.68L849.64 862.18L849.64 787.18zM1044.51 74.68L1109.46 112.18L1109.46 187.18L1044.51 224.68L979.55 187.18L979.55 112.18zM1044.51 524.68L1109.46 562.18L1109.46 637.18L1044.51 674.68L979.55 637.18L979.55 562.18zM1044.51 749.68L1109.46 787.18L1109.46 862.18L1044.51 899.68L979.55 862.18L979.55 787.18zM979.55 862.18L1044.51 899.68L1044.51 974.68L979.55 1012.18L914.6 974.68L914.6 899.68zM1109.46 187.18L1174.41 224.68L1174.41 299.68L1109.46 337.18L1044.51 299.68L1044.51 224.68zM1174.41 299.68L1239.37 337.18L1239.37 412.18L1174.41 449.68L1109.46 412.18L1109.46 337.18zM1239.37 -37.82L1304.32 -0.32L1304.32 74.68L1239.37 112.18L1174.41 74.68L1174.41 -0.32zM1239.37 637.18L1304.32 674.68L1304.32 749.68L1239.37 787.18L1174.41 749.68L1174.41 674.68zM1369.28 -37.82L1434.23 -0.32L1434.23 74.68L1369.28 112.18L1304.32 74.68L1304.32 -0.32zM1434.23 299.68L1499.18 337.18L1499.18 412.18L1434.23 449.68L1369.28 412.18L1369.28 337.18zM1434.23 749.68L1499.18 787.18L1499.18 862.18L1434.23 899.68L1369.28 862.18L1369.28 787.18zM1369.28 862.18L1434.23 899.68L1434.23 974.68L1369.28 1012.18L1304.32 974.68L1304.32 899.68zM1564.14 299.68L1629.09 337.18L1629.09 412.18L1564.14 449.68L1499.18 412.18L1499.18 337.18zM1499.18 412.18L1564.14 449.68L1564.14 524.68L1499.18 562.18L1434.23 524.68L1434.23 449.68zM1564.14 524.68L1629.09 562.18L1629.09 637.18L1564.14 674.68L1499.18 637.18L1499.18 562.18z" stroke="url(&quot;#SvgjsLinearGradient1990&quot;)" stroke-width="2"></path><path d="M62.7 -37.82 a7.5 7.5 0 1 0 15 0 a7.5 7.5 0 1 0 -15 0zM127.65 -0.32 a7.5 7.5 0 1 0 15 0 a7.5 7.5 0 1 0 -15 0zM127.65 74.68 a7.5 7.5 0 1 0 15 0 a7.5 7.5 0 1 0 -15 0zM62.7 112.18 a7.5 7.5 0 1 0 15 0 a7.5 7.5 0 1 0 -15 0zM-2.25 74.68 a7.5 7.5 0 1 0 15 0 a7.5 7.5 0 1 0 -15 0zM-2.25 -0.32 a7.5 7.5 0 1 0 15 0 a7.5 7.5 0 1 0 -15 0zM62.7 187.18 a7.5 7.5 0 1 0 15 0 a7.5 7.5 0 1 0 -15 0zM127.65 224.68 a7.5 7.5 0 1 0 15 0 a7.5 7.5 0 1 0 -15 0zM127.65 299.68 a7.5 7.5 0 1 0 15 0 a7.5 7.5 0 1 0 -15 0zM62.7 337.18 a7.5 7.5 0 1 0 15 0 a7.5 7.5 0 1 0 -15 0zM-2.25 299.68 a7.5 7.5 0 1 0 15 0 a7.5 7.5 0 1 0 -15 0zM-2.25 224.68 a7.5 7.5 0 1 0 15 0 a7.5 7.5 0 1 0 -15 0zM62.7 637.18 a7.5 7.5 0 1 0 15 0 a7.5 7.5 0 1 0 -15 0zM127.65 674.68 a7.5 7.5 0 1 0 15 0 a7.5 7.5 0 1 0 -15 0zM127.65 749.68 a7.5 7.5 0 1 0 15 0 a7.5 7.5 0 1 0 -15 0zM62.7 787.18 a7.5 7.5 0 1 0 15 0 a7.5 7.5 0 1 0 -15 0zM-2.25 749.68 a7.5 7.5 0 1 0 15 0 a7.5 7.5 0 1 0 -15 0zM-2.25 674.68 a7.5 7.5 0 1 0 15 0 a7.5 7.5 0 1 0 -15 0zM192.61 -37.82 a7.5 7.5 0 1 0 15 0 a7.5 7.5 0 1 0 -15 0zM257.56 -0.32 a7.5 7.5 0 1 0 15 0 a7.5 7.5 0 1 0 -15 0zM257.56 74.68 a7.5 7.5 0 1 0 15 0 a7.5 7.5 0 1 0 -15 0zM192.61 112.18 a7.5 7.5 0 1 0 15 0 a7.5 7.5 0 1 0 -15 0zM322.51 112.18 a7.5 7.5 0 1 0 15 0 a7.5 7.5 0 1 0 -15 0zM322.51 187.18 a7.5 7.5 0 1 0 15 0 a7.5 7.5 0 1 0 -15 0zM257.56 224.68 a7.5 7.5 0 1 0 15 0 a7.5 7.5 0 1 0 -15 0zM192.61 187.18 a7.5 7.5 0 1 0 15 0 a7.5 7.5 0 1 0 -15 0zM257.56 299.68 a7.5 7.5 0 1 0 15 0 a7.5 7.5 0 1 0 -15 0zM192.61 337.18 a7.5 7.5 0 1 0 15 0 a7.5 7.5 0 1 0 -15 0zM192.61 412.18 a7.5 7.5 0 1 0 15 0 a7.5 7.5 0 1 0 -15 0zM257.56 449.68 a7.5 7.5 0 1 0 15 0 a7.5 7.5 0 1 0 -15 0zM257.56 524.68 a7.5 7.5 0 1 0 15 0 a7.5 7.5 0 1 0 -15 0zM192.61 562.18 a7.5 7.5 0 1 0 15 0 a7.5 7.5 0 1 0 -15 0zM127.65 524.68 a7.5 7.5 0 1 0 15 0 a7.5 7.5 0 1 0 -15 0zM127.65 449.68 a7.5 7.5 0 1 0 15 0 a7.5 7.5 0 1 0 -15 0zM322.51 562.18 a7.5 7.5 0 1 0 15 0 a7.5 7.5 0 1 0 -15 0zM322.51 637.18 a7.5 7.5 0 1 0 15 0 a7.5 7.5 0 1 0 -15 0zM257.56 674.68 a7.5 7.5 0 1 0 15 0 a7.5 7.5 0 1 0 -15 0zM192.61 637.18 a7.5 7.5 0 1 0 15 0 a7.5 7.5 0 1 0 -15 0zM257.56 749.68 a7.5 7.5 0 1 0 15 0 a7.5 7.5 0 1 0 -15 0zM192.61 787.18 a7.5 7.5 0 1 0 15 0 a7.5 7.5 0 1 0 -15 0zM322.51 -37.82 a7.5 7.5 0 1 0 15 0 a7.5 7.5 0 1 0 -15 0zM387.47 -0.32 a7.5 7.5 0 1 0 15 0 a7.5 7.5 0 1 0 -15 0zM387.47 74.68 a7.5 7.5 0 1 0 15 0 a7.5 7.5 0 1 0 -15 0zM387.47 299.68 a7.5 7.5 0 1 0 15 0 a7.5 7.5 0 1 0 -15 0zM452.42 337.18 a7.5 7.5 0 1 0 15 0 a7.5 7.5 0 1 0 -15 0zM452.42 412.18 a7.5 7.5 0 1 0 15 0 a7.5 7.5 0 1 0 -15 0zM387.47 449.68 a7.5 7.5 0 1 0 15 0 a7.5 7.5 0 1 0 -15 0zM322.51 412.18 a7.5 7.5 0 1 0 15 0 a7.5 7.5 0 1 0 -15 0zM322.51 337.18 a7.5 7.5 0 1 0 15 0 a7.5 7.5 0 1 0 -15 0zM387.47 524.68 a7.5 7.5 0 1 0 15 0 a7.5 7.5 0 1 0 -15 0zM387.47 674.68 a7.5 7.5 0 1 0 15 0 a7.5 7.5 0 1 0 -15 0zM387.47 749.68 a7.5 7.5 0 1 0 15 0 a7.5 7.5 0 1 0 -15 0zM322.51 787.18 a7.5 7.5 0 1 0 15 0 a7.5 7.5 0 1 0 -15 0zM452.42 787.18 a7.5 7.5 0 1 0 15 0 a7.5 7.5 0 1 0 -15 0zM452.42 862.18 a7.5 7.5 0 1 0 15 0 a7.5 7.5 0 1 0 -15 0zM387.47 899.68 a7.5 7.5 0 1 0 15 0 a7.5 7.5 0 1 0 -15 0zM322.51 862.18 a7.5 7.5 0 1 0 15 0 a7.5 7.5 0 1 0 -15 0zM387.47 974.68 a7.5 7.5 0 1 0 15 0 a7.5 7.5 0 1 0 -15 0zM322.51 1012.18 a7.5 7.5 0 1 0 15 0 a7.5 7.5 0 1 0 -15 0zM257.56 974.68 a7.5 7.5 0 1 0 15 0 a7.5 7.5 0 1 0 -15 0zM257.56 899.68 a7.5 7.5 0 1 0 15 0 a7.5 7.5 0 1 0 -15 0zM517.38 74.68 a7.5 7.5 0 1 0 15 0 a7.5 7.5 0 1 0 -15 0zM582.33 112.18 a7.5 7.5 0 1 0 15 0 a7.5 7.5 0 1 0 -15 0zM582.33 187.18 a7.5 7.5 0 1 0 15 0 a7.5 7.5 0 1 0 -15 0zM517.38 224.68 a7.5 7.5 0 1 0 15 0 a7.5 7.5 0 1 0 -15 0zM452.42 187.18 a7.5 7.5 0 1 0 15 0 a7.5 7.5 0 1 0 -15 0zM452.42 112.18 a7.5 7.5 0 1 0 15 0 a7.5 7.5 0 1 0 -15 0zM517.38 299.68 a7.5 7.5 0 1 0 15 0 a7.5 7.5 0 1 0 -15 0zM387.47 224.68 a7.5 7.5 0 1 0 15 0 a7.5 7.5 0 1 0 -15 0zM517.38 449.68 a7.5 7.5 0 1 0 15 0 a7.5 7.5 0 1 0 -15 0zM517.38 524.68 a7.5 7.5 0 1 0 15 0 a7.5 7.5 0 1 0 -15 0zM452.42 562.18 a7.5 7.5 0 1 0 15 0 a7.5 7.5 0 1 0 -15 0zM517.38 899.68 a7.5 7.5 0 1 0 15 0 a7.5 7.5 0 1 0 -15 0zM517.38 974.68 a7.5 7.5 0 1 0 15 0 a7.5 7.5 0 1 0 -15 0zM452.42 1012.18 a7.5 7.5 0 1 0 15 0 a7.5 7.5 0 1 0 -15 0zM582.33 -37.82 a7.5 7.5 0 1 0 15 0 a7.5 7.5 0 1 0 -15 0zM647.28 -0.32 a7.5 7.5 0 1 0 15 0 a7.5 7.5 0 1 0 -15 0zM647.28 74.68 a7.5 7.5 0 1 0 15 0 a7.5 7.5 0 1 0 -15 0zM517.38 -0.32 a7.5 7.5 0 1 0 15 0 a7.5 7.5 0 1 0 -15 0zM712.24 112.18 a7.5 7.5 0 1 0 15 0 a7.5 7.5 0 1 0 -15 0zM712.24 187.18 a7.5 7.5 0 1 0 15 0 a7.5 7.5 0 1 0 -15 0zM647.28 224.68 a7.5 7.5 0 1 0 15 0 a7.5 7.5 0 1 0 -15 0zM582.33 862.18 a7.5 7.5 0 1 0 15 0 a7.5 7.5 0 1 0 -15 0zM647.28 899.68 a7.5 7.5 0 1 0 15 0 a7.5 7.5 0 1 0 -15 0zM647.28 974.68 a7.5 7.5 0 1 0 15 0 a7.5 7.5 0 1 0 -15 0zM582.33 1012.18 a7.5 7.5 0 1 0 15 0 a7.5 7.5 0 1 0 -15 0zM777.19 74.68 a7.5 7.5 0 1 0 15 0 a7.5 7.5 0 1 0 -15 0zM842.15 112.18 a7.5 7.5 0 1 0 15 0 a7.5 7.5 0 1 0 -15 0zM842.15 187.18 a7.5 7.5 0 1 0 15 0 a7.5 7.5 0 1 0 -15 0zM777.19 224.68 a7.5 7.5 0 1 0 15 0 a7.5 7.5 0 1 0 -15 0zM777.19 299.68 a7.5 7.5 0 1 0 15 0 a7.5 7.5 0 1 0 -15 0zM842.15 337.18 a7.5 7.5 0 1 0 15 0 a7.5 7.5 0 1 0 -15 0zM842.15 412.18 a7.5 7.5 0 1 0 15 0 a7.5 7.5 0 1 0 -15 0zM777.19 449.68 a7.5 7.5 0 1 0 15 0 a7.5 7.5 0 1 0 -15 0zM712.24 412.18 a7.5 7.5 0 1 0 15 0 a7.5 7.5 0 1 0 -15 0zM712.24 337.18 a7.5 7.5 0 1 0 15 0 a7.5 7.5 0 1 0 -15 0zM777.19 524.68 a7.5 7.5 0 1 0 15 0 a7.5 7.5 0 1 0 -15 0zM712.24 562.18 a7.5 7.5 0 1 0 15 0 a7.5 7.5 0 1 0 -15 0zM647.28 524.68 a7.5 7.5 0 1 0 15 0 a7.5 7.5 0 1 0 -15 0zM647.28 449.68 a7.5 7.5 0 1 0 15 0 a7.5 7.5 0 1 0 -15 0zM777.19 749.68 a7.5 7.5 0 1 0 15 0 a7.5 7.5 0 1 0 -15 0zM842.15 787.18 a7.5 7.5 0 1 0 15 0 a7.5 7.5 0 1 0 -15 0zM842.15 862.18 a7.5 7.5 0 1 0 15 0 a7.5 7.5 0 1 0 -15 0zM777.19 899.68 a7.5 7.5 0 1 0 15 0 a7.5 7.5 0 1 0 -15 0zM712.24 862.18 a7.5 7.5 0 1 0 15 0 a7.5 7.5 0 1 0 -15 0zM712.24 787.18 a7.5 7.5 0 1 0 15 0 a7.5 7.5 0 1 0 -15 0zM777.19 974.68 a7.5 7.5 0 1 0 15 0 a7.5 7.5 0 1 0 -15 0zM712.24 1012.18 a7.5 7.5 0 1 0 15 0 a7.5 7.5 0 1 0 -15 0zM907.1 74.68 a7.5 7.5 0 1 0 15 0 a7.5 7.5 0 1 0 -15 0zM972.05 112.18 a7.5 7.5 0 1 0 15 0 a7.5 7.5 0 1 0 -15 0zM972.05 187.18 a7.5 7.5 0 1 0 15 0 a7.5 7.5 0 1 0 -15 0zM907.1 224.68 a7.5 7.5 0 1 0 15 0 a7.5 7.5 0 1 0 -15 0zM842.14 187.18 a7.5 7.5 0 1 0 15 0 a7.5 7.5 0 1 0 -15 0zM842.14 112.18 a7.5 7.5 0 1 0 15 0 a7.5 7.5 0 1 0 -15 0zM907.1 524.68 a7.5 7.5 0 1 0 15 0 a7.5 7.5 0 1 0 -15 0zM972.05 562.18 a7.5 7.5 0 1 0 15 0 a7.5 7.5 0 1 0 -15 0zM972.05 637.18 a7.5 7.5 0 1 0 15 0 a7.5 7.5 0 1 0 -15 0zM907.1 674.68 a7.5 7.5 0 1 0 15 0 a7.5 7.5 0 1 0 -15 0zM842.14 637.18 a7.5 7.5 0 1 0 15 0 a7.5 7.5 0 1 0 -15 0zM842.14 562.18 a7.5 7.5 0 1 0 15 0 a7.5 7.5 0 1 0 -15 0zM907.1 749.68 a7.5 7.5 0 1 0 15 0 a7.5 7.5 0 1 0 -15 0zM972.05 787.18 a7.5 7.5 0 1 0 15 0 a7.5 7.5 0 1 0 -15 0zM972.05 862.18 a7.5 7.5 0 1 0 15 0 a7.5 7.5 0 1 0 -15 0zM907.1 899.68 a7.5 7.5 0 1 0 15 0 a7.5 7.5 0 1 0 -15 0zM842.14 862.18 a7.5 7.5 0 1 0 15 0 a7.5 7.5 0 1 0 -15 0zM842.14 787.18 a7.5 7.5 0 1 0 15 0 a7.5 7.5 0 1 0 -15 0zM1037.01 74.68 a7.5 7.5 0 1 0 15 0 a7.5 7.5 0 1 0 -15 0zM1101.96 112.18 a7.5 7.5 0 1 0 15 0 a7.5 7.5 0 1 0 -15 0zM1101.96 187.18 a7.5 7.5 0 1 0 15 0 a7.5 7.5 0 1 0 -15 0zM1037.01 224.68 a7.5 7.5 0 1 0 15 0 a7.5 7.5 0 1 0 -15 0zM1037.01 524.68 a7.5 7.5 0 1 0 15 0 a7.5 7.5 0 1 0 -15 0zM1101.96 562.18 a7.5 7.5 0 1 0 15 0 a7.5 7.5 0 1 0 -15 0zM1101.96 637.18 a7.5 7.5 0 1 0 15 0 a7.5 7.5 0 1 0 -15 0zM1037.01 674.68 a7.5 7.5 0 1 0 15 0 a7.5 7.5 0 1 0 -15 0zM1037.01 749.68 a7.5 7.5 0 1 0 15 0 a7.5 7.5 0 1 0 -15 0zM1101.96 787.18 a7.5 7.5 0 1 0 15 0 a7.5 7.5 0 1 0 -15 0zM1101.96 862.18 a7.5 7.5 0 1 0 15 0 a7.5 7.5 0 1 0 -15 0zM1037.01 899.68 a7.5 7.5 0 1 0 15 0 a7.5 7.5 0 1 0 -15 0zM1037.01 974.68 a7.5 7.5 0 1 0 15 0 a7.5 7.5 0 1 0 -15 0zM972.05 1012.18 a7.5 7.5 0 1 0 15 0 a7.5 7.5 0 1 0 -15 0zM907.1 974.68 a7.5 7.5 0 1 0 15 0 a7.5 7.5 0 1 0 -15 0zM1166.91 224.68 a7.5 7.5 0 1 0 15 0 a7.5 7.5 0 1 0 -15 0zM1166.91 299.68 a7.5 7.5 0 1 0 15 0 a7.5 7.5 0 1 0 -15 0zM1101.96 337.18 a7.5 7.5 0 1 0 15 0 a7.5 7.5 0 1 0 -15 0zM1037.01 299.68 a7.5 7.5 0 1 0 15 0 a7.5 7.5 0 1 0 -15 0zM1231.87 337.18 a7.5 7.5 0 1 0 15 0 a7.5 7.5 0 1 0 -15 0zM1231.87 412.18 a7.5 7.5 0 1 0 15 0 a7.5 7.5 0 1 0 -15 0zM1166.91 449.68 a7.5 7.5 0 1 0 15 0 a7.5 7.5 0 1 0 -15 0zM1101.96 412.18 a7.5 7.5 0 1 0 15 0 a7.5 7.5 0 1 0 -15 0zM1231.87 -37.82 a7.5 7.5 0 1 0 15 0 a7.5 7.5 0 1 0 -15 0zM1296.82 -0.32 a7.5 7.5 0 1 0 15 0 a7.5 7.5 0 1 0 -15 0zM1296.82 74.68 a7.5 7.5 0 1 0 15 0 a7.5 7.5 0 1 0 -15 0zM1231.87 112.18 a7.5 7.5 0 1 0 15 0 a7.5 7.5 0 1 0 -15 0zM1166.91 74.68 a7.5 7.5 0 1 0 15 0 a7.5 7.5 0 1 0 -15 0zM1166.91 -0.32 a7.5 7.5 0 1 0 15 0 a7.5 7.5 0 1 0 -15 0zM1231.87 637.18 a7.5 7.5 0 1 0 15 0 a7.5 7.5 0 1 0 -15 0zM1296.82 674.68 a7.5 7.5 0 1 0 15 0 a7.5 7.5 0 1 0 -15 0zM1296.82 749.68 a7.5 7.5 0 1 0 15 0 a7.5 7.5 0 1 0 -15 0zM1231.87 787.18 a7.5 7.5 0 1 0 15 0 a7.5 7.5 0 1 0 -15 0zM1166.91 749.68 a7.5 7.5 0 1 0 15 0 a7.5 7.5 0 1 0 -15 0zM1166.91 674.68 a7.5 7.5 0 1 0 15 0 a7.5 7.5 0 1 0 -15 0zM1361.78 -37.82 a7.5 7.5 0 1 0 15 0 a7.5 7.5 0 1 0 -15 0zM1426.73 -0.32 a7.5 7.5 0 1 0 15 0 a7.5 7.5 0 1 0 -15 0zM1426.73 74.68 a7.5 7.5 0 1 0 15 0 a7.5 7.5 0 1 0 -15 0zM1361.78 112.18 a7.5 7.5 0 1 0 15 0 a7.5 7.5 0 1 0 -15 0zM1426.73 299.68 a7.5 7.5 0 1 0 15 0 a7.5 7.5 0 1 0 -15 0zM1491.68 337.18 a7.5 7.5 0 1 0 15 0 a7.5 7.5 0 1 0 -15 0zM1491.68 412.18 a7.5 7.5 0 1 0 15 0 a7.5 7.5 0 1 0 -15 0zM1426.73 449.68 a7.5 7.5 0 1 0 15 0 a7.5 7.5 0 1 0 -15 0zM1361.78 412.18 a7.5 7.5 0 1 0 15 0 a7.5 7.5 0 1 0 -15 0zM1361.78 337.18 a7.5 7.5 0 1 0 15 0 a7.5 7.5 0 1 0 -15 0zM1426.73 749.68 a7.5 7.5 0 1 0 15 0 a7.5 7.5 0 1 0 -15 0zM1491.68 787.18 a7.5 7.5 0 1 0 15 0 a7.5 7.5 0 1 0 -15 0zM1491.68 862.18 a7.5 7.5 0 1 0 15 0 a7.5 7.5 0 1 0 -15 0zM1426.73 899.68 a7.5 7.5 0 1 0 15 0 a7.5 7.5 0 1 0 -15 0zM1361.78 862.18 a7.5 7.5 0 1 0 15 0 a7.5 7.5 0 1 0 -15 0zM1361.78 787.18 a7.5 7.5 0 1 0 15 0 a7.5 7.5 0 1 0 -15 0zM1426.73 974.68 a7.5 7.5 0 1 0 15 0 a7.5 7.5 0 1 0 -15 0zM1361.78 1012.18 a7.5 7.5 0 1 0 15 0 a7.5 7.5 0 1 0 -15 0zM1296.82 974.68 a7.5 7.5 0 1 0 15 0 a7.5 7.5 0 1 0 -15 0zM1296.82 899.68 a7.5 7.5 0 1 0 15 0 a7.5 7.5 0 1 0 -15 0zM1556.64 299.68 a7.5 7.5 0 1 0 15 0 a7.5 7.5 0 1 0 -15 0zM1621.59 337.18 a7.5 7.5 0 1 0 15 0 a7.5 7.5 0 1 0 -15 0zM1621.59 412.18 a7.5 7.5 0 1 0 15 0 a7.5 7.5 0 1 0 -15 0zM1556.64 449.68 a7.5 7.5 0 1 0 15 0 a7.5 7.5 0 1 0 -15 0zM1556.64 524.68 a7.5 7.5 0 1 0 15 0 a7.5 7.5 0 1 0 -15 0zM1491.68 562.18 a7.5 7.5 0 1 0 15 0 a7.5 7.5 0 1 0 -15 0zM1426.73 524.68 a7.5 7.5 0 1 0 15 0 a7.5 7.5 0 1 0 -15 0zM1621.59 562.18 a7.5 7.5 0 1 0 15 0 a7.5 7.5 0 1 0 -15 0zM1621.59 637.18 a7.5 7.5 0 1 0 15 0 a7.5 7.5 0 1 0 -15 0zM1556.64 674.68 a7.5 7.5 0 1 0 15 0 a7.5 7.5 0 1 0 -15 0zM1491.68 637.18 a7.5 7.5 0 1 0 15 0 a7.5 7.5 0 1 0 -15 0z" fill="url(&quot;#SvgjsLinearGradient1990&quot;)"></path></g><defs><mask id="SvgjsMask1988"><rect width="1440" height="900" fill="#ffffff"></rect></mask><linearGradient x1="9.37%" y1="-15%" x2="90.63%" y2="115%" gradientUnits="userSpaceOnUse" id="SvgjsLinearGradient1989"><stop stop-color="rgba(38, 45, 103, 1)" offset="0"></stop><stop stop-color="rgba(80, 157, 223, 1)" offset="1"></stop></linearGradient><linearGradient x1="134.928" y1="-135" x2="1305.072" y2="1035" gradientUnits="userSpaceOnUse" id="SvgjsLinearGradient1990"><stop stop-color="rgba(105, 82, 196, 1)" offset="0"></stop><stop stop-color="rgba(82, 163, 243, 1)" offset="1"></stop></linearGradient></defs></svg>