<svg id="visual" viewBox="0 0 600 900" width="600" height="900" xmlns="http://www.w3.org/2000/svg" xmlns:xlink="http://www.w3.org/1999/xlink" version="1.1"><rect x="0" y="0" width="600" height="900" fill="#8499BA"></rect><path d="M0 469L12.5 482.2C25 495.3 50 521.7 75 535.7C100 549.7 125 551.3 150 550.7C175 550 200 547 225 536.7C250 526.3 275 508.7 300 507.5C325 506.3 350 521.7 375 525.2C400 528.7 425 520.3 450 517.7C475 515 500 518 525 520.7C550 523.3 575 525.7 587.5 526.8L600 528L600 901L587.5 901C575 901 550 901 525 901C500 901 475 901 450 901C425 901 400 901 375 901C350 901 325 901 300 901C275 901 250 901 225 901C200 901 175 901 150 901C125 901 100 901 75 901C50 901 25 901 12.5 901L0 901Z" fill="#5191b1"></path><path d="M0 592L12.5 585C25 578 50 564 75 566.5C100 569 125 588 150 593.7C175 599.3 200 591.7 225 582C250 572.3 275 560.7 300 568.3C325 576 350 603 375 618C400 633 425 636 450 628.2C475 620.3 500 601.7 525 600C550 598.3 575 613.7 587.5 621.3L600 629L600 901L587.5 901C575 901 550 901 525 901C500 901 475 901 450 901C425 901 400 901 375 901C350 901 325 901 300 901C275 901 250 901 225 901C200 901 175 901 150 901C125 901 100 901 75 901C50 901 25 901 12.5 901L0 901Z" fill="#477698"></path><path d="M0 699L12.5 690.5C25 682 50 665 75 657.8C100 650.7 125 653.3 150 644.8C175 636.3 200 616.7 225 615.5C250 614.3 275 631.7 300 635.3C325 639 350 629 375 637C400 645 425 671 450 679.5C475 688 500 679 525 678.5C550 678 575 686 587.5 690L600 694L600 901L587.5 901C575 901 550 901 525 901C500 901 475 901 450 901C425 901 400 901 375 901C350 901 325 901 300 901C275 901 250 901 225 901C200 901 175 901 150 901C125 901 100 901 75 901C50 901 25 901 12.5 901L0 901Z" fill="#3e5c7d"></path><path d="M0 688L12.5 696C25 704 50 720 75 719.2C100 718.3 125 700.7 150 690.2C175 679.7 200 676.3 225 678.3C250 680.3 275 687.7 300 693.3C325 699 350 703 375 706.3C400 709.7 425 712.3 450 710.7C475 709 500 703 525 695.5C550 688 575 679 587.5 674.5L600 670L600 901L587.5 901C575 901 550 901 525 901C500 901 475 901 450 901C425 901 400 901 375 901C350 901 325 901 300 901C275 901 250 901 225 901C200 901 175 901 150 901C125 901 100 901 75 901C50 901 25 901 12.5 901L0 901Z" fill="#344363"></path><path d="M0 739L12.5 737.3C25 735.7 50 732.3 75 741.7C100 751 125 773 150 783C175 793 200 791 225 785C250 779 275 769 300 761.2C325 753.3 350 747.7 375 742.8C400 738 425 734 450 743.5C475 753 500 776 525 786.8C550 797.7 575 796.3 587.5 795.7L600 795L600 901L587.5 901C575 901 550 901 525 901C500 901 475 901 450 901C425 901 400 901 375 901C350 901 325 901 300 901C275 901 250 901 225 901C200 901 175 901 150 901C125 901 100 901 75 901C50 901 25 901 12.5 901L0 901Z" fill="#292c48"></path><path d="M0 807L12.5 813C25 819 50 831 75 833.5C100 836 125 829 150 829.7C175 830.3 200 838.7 225 835.8C250 833 275 819 300 817.5C325 816 350 827 375 830.5C400 834 425 830 450 832.2C475 834.3 500 842.7 525 841.5C550 840.3 575 829.7 587.5 824.3L600 819L600 901L587.5 901C575 901 550 901 525 901C500 901 475 901 450 901C425 901 400 901 375 901C350 901 325 901 300 901C275 901 250 901 225 901C200 901 175 901 150 901C125 901 100 901 75 901C50 901 25 901 12.5 901L0 901Z" fill="#1c172e"></path></svg>