<svg xmlns="http://www.w3.org/2000/svg" version="1.1" xmlns:xlink="http://www.w3.org/1999/xlink" xmlns:svgjs="http://svgjs.dev/svgjs" width="1440" height="900" preserveAspectRatio="none" viewBox="0 0 1440 900"><g mask="url(&quot;#SvgjsMask1033&quot;)" fill="none"><rect width="1440" height="900" x="0" y="0" fill="rgba(230, 230, 245, 1)"></rect><path d="M11 603L-392 200" stroke-width="6" stroke="url(&quot;#SvgjsLinearGradient1034&quot;)" stroke-linecap="round" class="BottomRight"></path><path d="M1358 130L891 -337" stroke-width="6" stroke="url(&quot;#SvgjsLinearGradient1035&quot;)" stroke-linecap="round" class="TopLeft"></path><path d="M1408 829L2062 1483" stroke-width="10" stroke="url(&quot;#SvgjsLinearGradient1035&quot;)" stroke-linecap="round" class="TopLeft"></path><path d="M140 434L431 725" stroke-width="6" stroke="url(&quot;#SvgjsLinearGradient1034&quot;)" stroke-linecap="round" class="BottomRight"></path><path d="M566 36L1238 708" stroke-width="6" stroke="url(&quot;#SvgjsLinearGradient1035&quot;)" stroke-linecap="round" class="TopLeft"></path><path d="M486 145L-19 -360" stroke-width="8" stroke="url(&quot;#SvgjsLinearGradient1034&quot;)" stroke-linecap="round" class="BottomRight"></path><path d="M886 710L1210 1034" stroke-width="6" stroke="url(&quot;#SvgjsLinearGradient1035&quot;)" stroke-linecap="round" class="TopLeft"></path><path d="M860 338L613 91" stroke-width="8" stroke="url(&quot;#SvgjsLinearGradient1035&quot;)" stroke-linecap="round" class="TopLeft"></path><path d="M992 512L375 -105" stroke-width="8" stroke="url(&quot;#SvgjsLinearGradient1034&quot;)" stroke-linecap="round" class="BottomRight"></path><path d="M182 485L-426 -123" stroke-width="8" stroke="url(&quot;#SvgjsLinearGradient1035&quot;)" stroke-linecap="round" class="TopLeft"></path><path d="M200 389L522 711" stroke-width="10" stroke="url(&quot;#SvgjsLinearGradient1035&quot;)" stroke-linecap="round" class="TopLeft"></path><path d="M666 190L344 -132" stroke-width="10" stroke="url(&quot;#SvgjsLinearGradient1035&quot;)" stroke-linecap="round" class="TopLeft"></path><path d="M1011 627L1504 1120" stroke-width="6" stroke="url(&quot;#SvgjsLinearGradient1034&quot;)" stroke-linecap="round" class="BottomRight"></path><path d="M679 460L427 208" stroke-width="10" stroke="url(&quot;#SvgjsLinearGradient1035&quot;)" stroke-linecap="round" class="TopLeft"></path><path d="M10 756L583 1329" stroke-width="6" stroke="url(&quot;#SvgjsLinearGradient1035&quot;)" stroke-linecap="round" class="TopLeft"></path><path d="M219 734L463 978" stroke-width="8" stroke="url(&quot;#SvgjsLinearGradient1035&quot;)" stroke-linecap="round" class="TopLeft"></path><path d="M1217 305L945 33" stroke-width="6" stroke="url(&quot;#SvgjsLinearGradient1035&quot;)" stroke-linecap="round" class="TopLeft"></path><path d="M57 679L-412 210" stroke-width="6" stroke="url(&quot;#SvgjsLinearGradient1034&quot;)" stroke-linecap="round" class="BottomRight"></path><path d="M1253 434L1921 1102" stroke-width="8" stroke="url(&quot;#SvgjsLinearGradient1035&quot;)" stroke-linecap="round" class="TopLeft"></path><path d="M349 397L932 980" stroke-width="8" stroke="url(&quot;#SvgjsLinearGradient1034&quot;)" stroke-linecap="round" class="BottomRight"></path><path d="M118 190L-218 -146" stroke-width="8" stroke="url(&quot;#SvgjsLinearGradient1035&quot;)" stroke-linecap="round" class="TopLeft"></path><path d="M545 208L963 626" stroke-width="10" stroke="url(&quot;#SvgjsLinearGradient1035&quot;)" stroke-linecap="round" class="TopLeft"></path><path d="M702 337L1123 758" stroke-width="10" stroke="url(&quot;#SvgjsLinearGradient1035&quot;)" stroke-linecap="round" class="TopLeft"></path><path d="M901 93L1475 667" stroke-width="6" stroke="url(&quot;#SvgjsLinearGradient1034&quot;)" stroke-linecap="round" class="BottomRight"></path><path d="M897 400L467 -30" stroke-width="8" stroke="url(&quot;#SvgjsLinearGradient1034&quot;)" stroke-linecap="round" class="BottomRight"></path><path d="M1109 6L1641 538" stroke-width="8" stroke="url(&quot;#SvgjsLinearGradient1035&quot;)" stroke-linecap="round" class="TopLeft"></path><path d="M1390 894L960 464" stroke-width="8" stroke="url(&quot;#SvgjsLinearGradient1035&quot;)" stroke-linecap="round" class="TopLeft"></path><path d="M662 124L-10 -548" stroke-width="10" stroke="url(&quot;#SvgjsLinearGradient1035&quot;)" stroke-linecap="round" class="TopLeft"></path><path d="M370 222L-91 -239" stroke-width="6" stroke="url(&quot;#SvgjsLinearGradient1035&quot;)" stroke-linecap="round" class="TopLeft"></path><path d="M124 515L518 909" stroke-width="10" stroke="url(&quot;#SvgjsLinearGradient1035&quot;)" stroke-linecap="round" class="TopLeft"></path><path d="M1348 66L1831 549" stroke-width="10" stroke="url(&quot;#SvgjsLinearGradient1035&quot;)" stroke-linecap="round" class="TopLeft"></path><path d="M333 218L-2 -117" stroke-width="8" stroke="url(&quot;#SvgjsLinearGradient1035&quot;)" stroke-linecap="round" class="TopLeft"></path><path d="M1428 93L1989 654" stroke-width="10" stroke="url(&quot;#SvgjsLinearGradient1035&quot;)" stroke-linecap="round" class="TopLeft"></path><path d="M55 700L-235 410" stroke-width="6" stroke="url(&quot;#SvgjsLinearGradient1034&quot;)" stroke-linecap="round" class="BottomRight"></path><path d="M1115 427L470 -218" stroke-width="6" stroke="url(&quot;#SvgjsLinearGradient1034&quot;)" stroke-linecap="round" class="BottomRight"></path><path d="M1103 793L1348 1038" stroke-width="8" stroke="url(&quot;#SvgjsLinearGradient1034&quot;)" stroke-linecap="round" class="BottomRight"></path><path d="M500 87L131 -282" stroke-width="10" stroke="url(&quot;#SvgjsLinearGradient1034&quot;)" stroke-linecap="round" class="BottomRight"></path><path d="M532 384L1007 859" stroke-width="6" stroke="url(&quot;#SvgjsLinearGradient1035&quot;)" stroke-linecap="round" class="TopLeft"></path><path d="M845 841L1481 1477" stroke-width="8" stroke="url(&quot;#SvgjsLinearGradient1034&quot;)" stroke-linecap="round" class="BottomRight"></path><path d="M459 195L842 578" stroke-width="8" stroke="url(&quot;#SvgjsLinearGradient1035&quot;)" stroke-linecap="round" class="TopLeft"></path><path d="M217 877L-97 563" stroke-width="10" stroke="url(&quot;#SvgjsLinearGradient1035&quot;)" stroke-linecap="round" class="TopLeft"></path><path d="M1421 355L763 -303" stroke-width="6" stroke="url(&quot;#SvgjsLinearGradient1034&quot;)" stroke-linecap="round" class="BottomRight"></path><path d="M1406 698L1144 436" stroke-width="8" stroke="url(&quot;#SvgjsLinearGradient1034&quot;)" stroke-linecap="round" class="BottomRight"></path></g><defs><mask id="SvgjsMask1033"><rect width="1440" height="900" fill="#ffffff"></rect></mask><linearGradient x1="0%" y1="0%" x2="100%" y2="100%" id="SvgjsLinearGradient1034"><stop stop-color="rgba(187, 196, 233, 0)" offset="0"></stop><stop stop-color="rgba(187, 196, 233, 1)" offset="1"></stop></linearGradient><linearGradient x1="100%" y1="100%" x2="0%" y2="0%" id="SvgjsLinearGradient1035"><stop stop-color="rgba(187, 196, 233, 0)" offset="0"></stop><stop stop-color="rgba(187, 196, 233, 1)" offset="1"></stop></linearGradient></defs></svg>