<svg id="visual" viewBox="0 0 900 450" width="900" height="450" xmlns="http://www.w3.org/2000/svg" xmlns:xlink="http://www.w3.org/1999/xlink" version="1.1"><path d="M0 42L82 78L164 46L245 78L327 78L409 78L491 69L573 69L655 51L736 73L818 64L900 55L900 0L818 0L736 0L655 0L573 0L491 0L409 0L327 0L245 0L164 0L82 0L0 0Z" fill="#26599d"></path><path d="M0 73L82 136L164 82L245 114L327 109L409 159L491 141L573 123L655 114L736 132L818 114L900 105L900 53L818 62L736 71L655 49L573 67L491 67L409 76L327 76L245 76L164 44L82 76L0 40Z" fill="#0a6ca8"></path><path d="M0 199L82 276L164 262L245 280L327 222L409 280L491 262L573 253L655 276L736 276L818 222L900 186L900 103L818 112L736 130L655 112L573 121L491 139L409 157L327 107L245 112L164 80L82 134L0 71Z" fill="#007eaf"></path><path d="M0 379L82 402L164 343L245 352L327 411L409 397L491 388L573 402L655 339L736 411L818 397L900 330L900 184L818 220L736 274L655 274L573 251L491 260L409 278L327 220L245 278L164 260L82 274L0 197Z" fill="#1b8fb3"></path><path d="M0 451L82 451L164 451L245 451L327 451L409 451L491 451L573 451L655 451L736 451L818 451L900 451L900 328L818 395L736 409L655 337L573 400L491 386L409 395L327 409L245 350L164 341L82 400L0 377Z" fill="#3a9fb6"></path></svg>