<svg id="visual" viewBox="0 0 900 600" width="900" height="600" xmlns="http://www.w3.org/2000/svg" xmlns:xlink="http://www.w3.org/1999/xlink" version="1.1"><path d="M0 121L18.8 119C37.7 117 75.3 113 112.8 124C150.3 135 187.7 161 225.2 171C262.7 181 300.3 175 337.8 168C375.3 161 412.7 153 450.2 155C487.7 157 525.3 169 562.8 159C600.3 149 637.7 117 675.2 104C712.7 91 750.3 97 787.8 106C825.3 115 862.7 127 881.3 133L900 139L900 0L881.3 0C862.7 0 825.3 0 787.8 0C750.3 0 712.7 0 675.2 0C637.7 0 600.3 0 562.8 0C525.3 0 487.7 0 450.2 0C412.7 0 375.3 0 337.8 0C300.3 0 262.7 0 225.2 0C187.7 0 150.3 0 112.8 0C75.3 0 37.7 0 18.8 0L0 0Z" fill="#7491e7"></path><path d="M0 199L18.8 199C37.7 199 75.3 199 112.8 205C150.3 211 187.7 223 225.2 238C262.7 253 300.3 271 337.8 266C375.3 261 412.7 233 450.2 229C487.7 225 525.3 245 562.8 242C600.3 239 637.7 213 675.2 201C712.7 189 750.3 191 787.8 199C825.3 207 862.7 221 881.3 228L900 235L900 137L881.3 131C862.7 125 825.3 113 787.8 104C750.3 95 712.7 89 675.2 102C637.7 115 600.3 147 562.8 157C525.3 167 487.7 155 450.2 153C412.7 151 375.3 159 337.8 166C300.3 173 262.7 179 225.2 169C187.7 159 150.3 133 112.8 122C75.3 111 37.7 115 18.8 117L0 119Z" fill="#6585e4"></path><path d="M0 259L18.8 257C37.7 255 75.3 251 112.8 255C150.3 259 187.7 271 225.2 285C262.7 299 300.3 315 337.8 309C375.3 303 412.7 275 450.2 269C487.7 263 525.3 279 562.8 276C600.3 273 637.7 251 675.2 246C712.7 241 750.3 253 787.8 263C825.3 273 862.7 281 881.3 285L900 289L900 233L881.3 226C862.7 219 825.3 205 787.8 197C750.3 189 712.7 187 675.2 199C637.7 211 600.3 237 562.8 240C525.3 243 487.7 223 450.2 227C412.7 231 375.3 259 337.8 264C300.3 269 262.7 251 225.2 236C187.7 221 150.3 209 112.8 203C75.3 197 37.7 197 18.8 197L0 197Z" fill="#5479e0"></path><path d="M0 289L18.8 285C37.7 281 75.3 273 112.8 279C150.3 285 187.7 305 225.2 322C262.7 339 300.3 353 337.8 346C375.3 339 412.7 311 450.2 303C487.7 295 525.3 307 562.8 301C600.3 295 637.7 271 675.2 268C712.7 265 750.3 283 787.8 295C825.3 307 862.7 313 881.3 316L900 319L900 287L881.3 283C862.7 279 825.3 271 787.8 261C750.3 251 712.7 239 675.2 244C637.7 249 600.3 271 562.8 274C525.3 277 487.7 261 450.2 267C412.7 273 375.3 301 337.8 307C300.3 313 262.7 297 225.2 283C187.7 269 150.3 257 112.8 253C75.3 249 37.7 253 18.8 255L0 257Z" fill="#426ddc"></path><path d="M0 325L18.8 325C37.7 325 75.3 325 112.8 335C150.3 345 187.7 365 225.2 382C262.7 399 300.3 413 337.8 401C375.3 389 412.7 351 450.2 343C487.7 335 525.3 357 562.8 353C600.3 349 637.7 319 675.2 312C712.7 305 750.3 321 787.8 333C825.3 345 862.7 353 881.3 357L900 361L900 317L881.3 314C862.7 311 825.3 305 787.8 293C750.3 281 712.7 263 675.2 266C637.7 269 600.3 293 562.8 299C525.3 305 487.7 293 450.2 301C412.7 309 375.3 337 337.8 344C300.3 351 262.7 337 225.2 320C187.7 303 150.3 283 112.8 277C75.3 271 37.7 279 18.8 283L0 287Z" fill="#2d61d8"></path><path d="M0 487L18.8 478C37.7 469 75.3 451 112.8 452C150.3 453 187.7 473 225.2 484C262.7 495 300.3 497 337.8 491C375.3 485 412.7 471 450.2 467C487.7 463 525.3 469 562.8 468C600.3 467 637.7 459 675.2 457C712.7 455 750.3 459 787.8 466C825.3 473 862.7 483 881.3 488L900 493L900 359L881.3 355C862.7 351 825.3 343 787.8 331C750.3 319 712.7 303 675.2 310C637.7 317 600.3 347 562.8 351C525.3 355 487.7 333 450.2 341C412.7 349 375.3 387 337.8 399C300.3 411 262.7 397 225.2 380C187.7 363 150.3 343 112.8 333C75.3 323 37.7 323 18.8 323L0 323Z" fill="#285bca"></path><path d="M0 511L18.8 507C37.7 503 75.3 495 112.8 496C150.3 497 187.7 507 225.2 513C262.7 519 300.3 521 337.8 515C375.3 509 412.7 495 450.2 495C487.7 495 525.3 509 562.8 508C600.3 507 637.7 491 675.2 485C712.7 479 750.3 483 787.8 491C825.3 499 862.7 511 881.3 517L900 523L900 491L881.3 486C862.7 481 825.3 471 787.8 464C750.3 457 712.7 453 675.2 455C637.7 457 600.3 465 562.8 466C525.3 467 487.7 461 450.2 465C412.7 469 375.3 483 337.8 489C300.3 495 262.7 493 225.2 482C187.7 471 150.3 451 112.8 450C75.3 449 37.7 467 18.8 476L0 485Z" fill="#2454bb"></path><path d="M0 559L18.8 552C37.7 545 75.3 531 112.8 527C150.3 523 187.7 529 225.2 536C262.7 543 300.3 551 337.8 549C375.3 547 412.7 535 450.2 535C487.7 535 525.3 547 562.8 544C600.3 541 637.7 523 675.2 517C712.7 511 750.3 517 787.8 527C825.3 537 862.7 551 881.3 558L900 565L900 521L881.3 515C862.7 509 825.3 497 787.8 489C750.3 481 712.7 477 675.2 483C637.7 489 600.3 505 562.8 506C525.3 507 487.7 493 450.2 493C412.7 493 375.3 507 337.8 513C300.3 519 262.7 517 225.2 511C187.7 505 150.3 495 112.8 494C75.3 493 37.7 501 18.8 505L0 509Z" fill="#204ead"></path><path d="M0 601L18.8 601C37.7 601 75.3 601 112.8 601C150.3 601 187.7 601 225.2 601C262.7 601 300.3 601 337.8 601C375.3 601 412.7 601 450.2 601C487.7 601 525.3 601 562.8 601C600.3 601 637.7 601 675.2 601C712.7 601 750.3 601 787.8 601C825.3 601 862.7 601 881.3 601L900 601L900 563L881.3 556C862.7 549 825.3 535 787.8 525C750.3 515 712.7 509 675.2 515C637.7 521 600.3 539 562.8 542C525.3 545 487.7 533 450.2 533C412.7 533 375.3 545 337.8 547C300.3 549 262.7 541 225.2 534C187.7 527 150.3 521 112.8 525C75.3 529 37.7 543 18.8 550L0 557Z" fill="#1d489f"></path></svg>